<svg xmlns="http://www.w3.org/2000/svg" width="1400" height="800" viewBox="-14 -8 1428 816"><path d="M579 512l119.3-77.7L817 511.6l137-89V89L817 0 697.8 77.7 579 .4l-137 89V423zm119.3-124L579 465.6l-101.5-66v-287l101.4-66 83 54.4-101 65.8v202c45-29.5 90-58.8 135.3-88.3l1.6-1 1.6 1 135 87.8V166.7c-32-20.7-64.2-41.7-96.3-62.7l-5-3.2L817 46.4l101.5 66v287l-101.4 66zm0-155l-101.7 66.2v-109l101.4-66 101.4 66v108.6l-101-65.8" fill="#409ee0"/><path d="M579 511.8L698.3 434v-46L579 465.4l-101.5-66v-287l101.3-66 83.4 54.3-101 65.8v202c45-29.5 90.3-58.8 135.5-88.3l1.6-1v-46.4L596.6 299V190L698 124l.3.2v-47l-.6.3L579 .2l-137 89v333.6l137 89" fill="#2a82c1"/><g><path fill="#364e66" d="M51.04 741.24l24.9-109.8h20.4l24.36 109.8 17.28-109.8h29.82l-36.6 165h-20.4L84.28 689.52 58 796.56H36.22l-36.3-165h32.4zm126.84-109.8h81.42v27.36h-52.08V699h47.4v27h-47.4v42.18h53.1v27.18h-82.44v-163.8m193.02 37.8c0 4.2-.36 8.28-1.2 12.36-.84 3.9-2.1 7.56-3.96 11.16-1.98 3.42-4.44 6.48-7.5 9.12-3 2.64-6.48 4.68-10.68 6v1.44c3.6 1.02 7.2 2.4 10.56 4.2 3.36 1.92 6.48 4.5 8.82 7.68 2.4 3.18 4.32 7.02 5.76 11.76 1.56 4.56 2.4 9.96 2.4 16.2 0 8.16-1.56 15.6-4.5 21.84-2.64 6.12-6.6 11.16-11.52 15-4.8 3.84-10.62 6.72-16.92 8.58-6.6 1.92-13.5 2.82-20.88 2.82h-8.4c-3.6 0-7.2-.18-11.22-.6-3.9 0-7.98-.36-12-.78-4.38-.6-8.28-1.2-11.82-2.16V632.52c5.1-.9 11.4-1.62 18.78-2.22 7.62-.78 15.18-1.2 22.62-1.2 6.84 0 13.2.6 19.56 1.68 6.42 1.2 11.82 3.12 16.5 6 4.8 3 8.58 7.2 11.4 12.42 2.82 5.1 4.08 11.88 4.08 20.1m-48.9 102.9c6.48 0 11.76-2.1 16.02-6.24 4.2-4.38 6.24-10.56 6.24-18.6 0-5.16-.6-9.18-2.1-12.12-1.5-3-3.3-5.28-5.64-7.08-2.28-1.56-4.98-2.7-8.04-3.12-3-.48-6.12-.78-9.42-.78h-11.82v46.62c1.2.48 3.36.84 6.3 1.2 3.18.18 5.88.24 8.4.24m-7.98-71.04c1.8 0 3.72-.24 5.88-.36 2.4-.24 4.08-.42 5.52-.84 4.5-1.8 8.22-4.62 11.4-8.52 3.3-3.96 4.92-9 4.92-15.3 0-4.2-.6-7.5-1.62-10.32-1.02-2.76-2.52-4.92-4.5-6.48-1.8-1.8-4.08-3-6.6-3.48-2.4-.84-5.22-1.2-8.22-1.2-6.42 0-10.8.36-13.5 1.02v45.3h6.78m182.88 52.2c0-5.04-1.44-9.3-4.44-12.72-3-3.6-6.6-6.9-11.16-9.96-4.32-3.18-9.12-6.48-14.4-9.6-5.28-3.42-10.02-7.2-14.52-11.64-4.38-4.2-7.98-9.36-10.92-15.24-3-6-4.5-13.2-4.5-21.78 0-8.04 1.2-14.7 3.6-20.28 2.28-5.58 5.82-10.02 9.96-13.56 4.2-3.6 9.24-6 15-7.62 5.82-1.8 11.88-2.64 18.42-2.64 7.8 0 15.24.84 22.08 2.4 6.84 1.5 12.48 3.6 16.98 6.24l-9 25.98c-2.7-1.8-6.72-3.6-12-5.16-5.04-1.56-10.68-2.4-16.62-2.4-6 0-10.8 1.32-14.04 3.84-3.24 2.4-4.92 6.12-4.92 10.92 0 4.56 1.5 8.4 4.44 11.76 3 3.36 6.6 6.48 10.98 9.6l14.52 9.9c5.16 3.3 10.08 7.2 14.4 11.82 4.56 4.2 8.4 9.48 11.4 15.6 3 5.82 4.38 13.02 4.38 21.24 0 8.4-1.2 15.48-3.72 21.6-2.4 6-5.76 11.1-10.44 15.18-4.2 3.9-9.6 6.9-15.78 8.82-6.18 2.1-13.08 3-20.76 3-9.42 0-17.88-.9-25.2-2.76-7.2-1.8-12.72-3.96-16.5-6.3l9.6-26.4c3 1.8 7.2 3.6 12.72 5.52a55.08 55.08 0 0 0 17.4 2.82c15.6 0 23.4-6.12 23.4-18.3M542.2 631.8h81.6v27h-52.2V699H619v27.18h-47.4v42.12h53.1v27.18h-82.5v-163.8m207 51.12L713.38 765h-9.78l-37.38-82.8 3.48 113.04h-27.6v-163.8h28.2l40.2 85.68 37.62-85.8h27.72v163.92h-29.4m116.4-36.96h-38.4l-9.6 36.96H785.8l47.16-165h23.1l47.64 165h-30.9l-10.02-36.96m-32.1-24.36h27l-13.5-60.48-13.5 60.48m107.64-45.6l3.18 107.04h-27.78v-165h22.68L994 738.78l-3-107.4h27.6v165h-22.62m141-137.76h-38.4v136.56h-29.28V658.8h-38.7v-27.3h106.38v27.3m14.88-27.3h29.4v163.8h-29.4V631.5m145.38 157.32c-4.2 3.48-9.42 5.82-16.2 7.44-6.72 1.56-13.56 2.4-20.16 2.4-8.4 0-16.2-1.38-23.52-4.08-7.2-3-13.5-7.92-18.78-14.7-5.58-6.6-9.84-15.48-12.9-26.4-3.18-10.8-4.68-24.3-4.68-40.2 0-16.56 1.68-30.24 5.04-41.1 3.48-10.92 8.22-19.62 13.8-26.04 5.82-6.48 12.24-11.16 19.56-13.8 7.38-2.64 14.64-3.96 22.2-3.96 7.56 0 14.16.6 19.8 1.8 5.7 1.2 10.38 2.7 13.92 4.2l-5.82 26.04c-3-1.5-6.48-2.7-10.62-3.6-3.6-.84-8.4-1.2-13.8-1.2-10.68 0-18.78 4.62-24.6 14.04-5.82 9.36-8.58 24-8.58 43.8 0 8.7.48 16.5 1.8 23.7 1.38 7.08 3.48 13.2 6.24 18.24 2.88 5.22 6.6 9 10.8 11.82 4.62 3 9.96 4.32 16.2 4.32 5.4 0 10.08-.9 14.1-2.28 3.72-1.62 7.2-3.36 10.32-5.4l5.88 24.9m71.04-35.64c0-4.98-1.44-9.24-4.38-12.6-3-3.6-6.72-6.96-11.16-10.02-4.32-3.18-9.18-6.48-14.4-9.6-5.16-3.42-10.02-7.2-14.4-11.64-4.38-4.2-8.04-9.36-10.92-15.24-3-5.88-4.44-13.2-4.44-21.72 0-7.98 1.2-14.7 3.48-20.28 2.4-5.52 5.88-9.96 10.02-13.5 4.2-3.6 9-6 14.88-7.62 5.7-1.8 11.88-2.58 18.42-2.58 7.92 0 15.24.78 22.08 2.4 6.84 1.44 12.6 3.6 17.04 6.18l-9.18 25.98c-2.64-1.8-6.6-3.6-11.88-5.22-5.1-1.56-10.68-2.4-16.8-2.4-6 0-10.68 1.32-13.92 3.84-3.24 2.4-4.8 6.12-4.8 10.92 0 4.5 1.5 8.28 4.38 11.7 3 3.36 6.6 6.48 10.98 9.6l14.4 9.9c5.4 3.24 10.2 7.08 14.58 11.76 4.44 4.2 8.22 9.48 11.16 15.6 2.88 5.82 4.32 13.02 4.32 21.24 0 8.4-1.2 15.42-3.6 21.48-2.4 6.12-5.76 11.16-10.2 15.24-4.5 3.9-9.72 6.9-15.9 8.82-6.3 2.04-13.2 3-20.76 3-9.6 0-18.18-.96-25.38-2.82-7.2-1.8-12.6-3.96-16.56-6.3l9.6-26.4c3 1.8 7.44 3.72 12.78 5.58 5.4 1.92 11.4 2.88 17.58 2.88 15.48 0 23.22-6 23.22-18.24"/></g></svg>