<svg xmlns="http://www.w3.org/2000/svg" width="512" height="512" viewBox="-5.12 -5.12 522.24 522.24"><path d="M137 512l119.3-77.7L375 511.6l137-89V89L375 0 255.8 77.7 137 .4 0 89.4V423zm119.3-124L137 465.6l-101.5-66v-287l101.4-66 83 54.4-101 65.8v202c45-29.5 90-58.8 135.3-88.3l1.6-1 1.6 1 135 87.8V166.7c-32-20.7-64.2-41.7-96.3-62.7l-5-3.2L375 46.4l101.5 66v287l-101.4 66zm0-155l-101.7 66.2v-109l101.4-66 101.4 66v108.6l-101-65.8" fill="#f39c1f"/><path d="M137 511.8L256.3 434v-46L137 465.4l-101.5-66v-287l101.3-66 83.4 54.3-101 65.8v202c45-29.5 90.3-58.8 135.5-88.3l1.6-1v-46.4L154.6 299V190L256 124l.3.2v-47l-.6.3L137 .2 0 89.2v333.6l137 89" fill="#f1c40f"/></svg>