<svg xmlns="http://www.w3.org/2000/svg" width="2900" height="512" viewBox="-29 -5.12 2958 522.24"><path d="M137 512l119.3-77.7L375 511.6l137-89V89L375 0 255.8 77.7 137 .4 0 89.4V423zm119.3-124L137 465.6l-101.5-66v-287l101.4-66 83 54.4-101 65.8v202c45-29.5 90-58.8 135.3-88.3l1.6-1 1.6 1 135 87.8V166.7c-32-20.7-64.2-41.7-96.3-62.7l-5-3.2L375 46.4l101.5 66v287l-101.4 66zm0-155l-101.7 66.2v-109l101.4-66 101.4 66v108.6l-101-65.8" fill="#4bbba3"/><path d="M137 511.8L256.3 434v-46L137 465.4l-101.5-66v-287l101.3-66 83.4 54.3-101 65.8v202c45-29.5 90.3-58.8 135.5-88.3l1.6-1v-46.4L154.6 299V190L256 124l.3.2v-47l-.6.3L137 .2 0 89.2v333.6l137 89" fill="#3ca191"/><g><path fill="#364e66" d="M653.4 305.4l41.5-183h34l40.6 183 28.8-183H848l-61 275h-34l-44.2-178.2L665 397.6h-36.3l-60.5-275h54zm211.4-183h135.7V168h-86.8v67h79v45h-79v70.3h88.5v45.3H864.8v-273m321.7 63c0 7-.6 13.8-2 20.6-1.4 6.5-3.5 12.6-6.6 18.6-3.3 5.7-7.4 10.8-12.5 15.2-5 4.4-10.8 7.8-17.8 10v2.4c6 1.7 12 4 17.6 7 5.6 3.2 10.8 7.5 14.7 12.8 4 5.3 7.2 11.7 9.6 19.6 2.6 7.6 4 16.6 4 27 0 13.6-2.6 26-7.5 36.4-4.4 10.2-11 18.6-19.2 25-8 6.4-17.7 11.2-28.2 14.3-11 3.2-22.5 4.7-34.8 4.7h-14c-6 0-12-.3-18.7-1-6.5 0-13.3-.6-20-1.3-7.3-1-13.8-2-19.7-3.6V124.2c8.5-1.5 19-2.7 31.3-3.7 12.7-1.3 25.3-2 37.7-2 11.4 0 22 1 32.6 2.8 10.7 2 19.7 5.2 27.5 10 8 5 14.3 12 19 20.7 4.7 8.5 6.8 19.8 6.8 33.5M1104.8 357c10.8 0 19.6-3.5 26.7-10.4 7-7.3 10.4-17.6 10.4-31 0-8.6-1-15.3-3.5-20.2-2.5-5-5.5-8.8-9.4-11.8-3.8-2.6-8.3-4.5-13.4-5.2-5-.8-10.2-1.3-15.7-1.3h-19.7v77.7c2 .8 5.6 1.4 10.5 2 5.3.3 9.8.4 14 .4m-13.3-118.4c3 0 6.2-.4 9.8-.6 4-.4 6.8-.7 9.2-1.4 7.5-3 13.7-7.7 19-14.2 5.5-6.6 8.2-15 8.2-25.5 0-7-1-12.5-2.7-17.2-1.7-4.6-4.2-8.2-7.5-10.8-3-3-6.8-5-11-5.8-4-1.4-8.7-2-13.7-2-10.7 0-18 .6-22.5 1.7v75.5h11.3m304.8 87c0-8.4-2.4-15.5-7.4-21.2-5-6-11-11.5-18.6-16.6-7.2-5.3-15.2-10.8-24-16-8.8-5.7-16.7-12-24.2-19.4-7.3-7-13.3-15.6-18.2-25.4-5-10-7.5-22-7.5-36.3 0-13.4 2-24.5 6-33.8 3.8-9.3 9.7-16.7 16.6-22.6 7-6 15.4-10 25-12.7 9.7-3 19.8-4.4 30.7-4.4 13 0 25.4 1.4 36.8 4 11.4 2.5 20.8 6 28.3 10.4l-15 43.3c-4.5-3-11.2-6-20-8.6-8.4-2.6-17.8-4-27.7-4-10 0-18 2.2-23.4 6.4-5.4 4-8.2 10.2-8.2 18.2 0 7.6 2.5 14 7.4 19.6 5 5.6 11 10.8 18.3 16l24.2 16.5c8.6 5.5 16.8 12 24 19.7 7.6 7 14 15.8 19 26 5 9.7 7.3 21.7 7.3 35.4 0 14-2 25.8-6.2 36-4 10-9.6 18.5-17.4 25.3-7 6.5-16 11.5-26.3 14.7-10.3 3.5-21.8 5-34.6 5-15.7 0-29.8-1.5-42-4.6-12-3-21.2-6.6-27.5-10.5l16-44c5 3 12 6 21.2 9.2 9 3 18.8 4.7 29 4.7 26 0 39-10.2 39-30.5M1472 123h136v45h-87v67h79v45.3h-79v70.2h88.5v45.3H1472v-273m345 85.2l-59.7 137H1741l-62.3-138 5.8 188.4h-46v-273h47l67 142.8 62.7-143h46.2v273.2h-49m194-61.6h-64l-16 61.6H1878l78.6-275h38.5l79.4 275H2023l-16.7-61.6m-53.5-40.6h45l-22.5-100.8-22.5 100.8m179.4-76l5.3 178.4h-46.3v-275h37.8l96 180.7-5-179h46v275h-37.7m235-229.6h-64v227.6h-48.8V168H2286v-45.5h177.3V168m24.8-45.5h49v273h-49v-273m242.3 262.2c-7 5.8-15.7 9.7-27 12.4-11.2 2.6-22.6 4-33.6 4-14 0-27-2.3-39.2-6.8-12-5-22.5-13.2-31.3-24.5-9.3-11-16.4-25.8-21.5-44-5.3-18-7.8-40.5-7.8-67 0-27.6 2.8-50.4 8.4-68.5 5.8-18.2 13.7-32.7 23-43.4 9.7-10.8 20.4-18.6 32.6-23 12.3-4.4 24.4-6.6 37-6.6 12.6 0 23.6 1 33 3 9.5 2 17.3 4.5 23.2 7l-9.7 43.4c-5-2.5-10.8-4.5-17.7-6-6-1.4-14-2-23-2-17.8 0-31.3 7.7-41 23.4-9.7 15.6-14.3 40-14.3 73 0 14.5.8 27.5 3 39.5 2.3 11.8 5.8 22 10.4 30.4 4.8 8.7 11 15 18 19.7 7.7 5 16.6 7.2 27 7.2 9 0 16.8-1.5 23.5-3.8 6.2-2.7 12-5.6 17.2-9l9.8 41.5m118.4-59.4c0-8.3-2.4-15.4-7.3-21-5-6-11.2-11.6-18.6-16.7-7.2-5.3-15.3-10.8-24-16-8.6-5.7-16.7-12-24-19.4-7.3-7-13.4-15.6-18.2-25.4-5-9.8-7.4-22-7.4-36.2 0-13.3 2-24.5 5.8-33.8 4-9.2 9.8-16.6 16.7-22.5 7-6 15-10 24.8-12.7 9.5-3 19.8-4.3 30.7-4.3 13.2 0 25.4 1.3 36.8 4 11.4 2.4 21 6 28.4 10.3l-15.3 43.3c-4.4-3-11-6-19.8-8.7-8.5-2.6-17.8-4-28-4-10 0-17.8 2.2-23.2 6.4-5.4 4-8 10.2-8 18.2 0 7.5 2.5 13.8 7.3 19.5 5 5.6 11 10.8 18.3 16l24 16.5c9 5.4 17 11.8 24.3 19.6 7.4 7 13.7 15.8 18.6 26 4.8 9.7 7.2 21.7 7.2 35.4 0 14-2 25.7-6 35.8-4 10.2-9.6 18.6-17 25.4-7.5 6.5-16.2 11.5-26.5 14.7-10.5 3.4-22 5-34.6 5-16 0-30.3-1.6-42.3-4.7-12-3-21-6.6-27.6-10.5l16-44c5 3 12.4 6.2 21.3 9.3 9 3.2 19 4.8 29.3 4.8 25.8 0 38.7-10 38.7-30.4"/></g></svg>